<?xml version="1.0" standalone="no"?><!DOCTYPE svg PUBLIC "-//W3C//DTD SVG 1.1//EN" "http://www.w3.org/Graphics/SVG/1.1/DTD/svg11.dtd"><svg t="1689059211984" class="icon" viewBox="0 0 1024 1024" version="1.1" xmlns="http://www.w3.org/2000/svg" p-id="1235" xmlns:xlink="http://www.w3.org/1999/xlink" width="200" height="200"><path d="M798.6688 615.0656v-62.2592c0-52.2752-40.3456-94.6176-90.1632-94.6176h-25.0368V351.4368H322.0992v106.752h-25.0368c-49.7664 0-90.1632 42.3424-90.1632 94.6176v62.2592h591.7696z" fill="#FFE8D2" p-id="1236"></path><path d="M798.6688 552.8064c0-52.2752-40.3456-94.6176-90.1632-94.6176h-25.0368V351.4368h-78.1824v77.8752c0 22.528 17.3056 40.9088 38.7584 41.1648 4.352 0.0512 8.3456 0.1024 11.6736 0.1024 16.1792 0 57.856 3.9936 61.696 34.7136s3.4816 82.4832 3.4816 82.4832l0.5632 27.2896H798.72v-62.2592z" fill="#E8AD80" p-id="1237"></path><path d="M206.9504 615.0656v251.5456c0 52.2752 40.3456 94.6176 90.1632 94.6176h411.4432c49.7664 0 90.1632-42.3424 90.1632-94.6176v-251.5456H206.9504z" fill="#FFC31A" p-id="1238"></path><path d="M721.4592 809.1648c0 38.8096-13.8752 133.4272-111.5136 134.0416-17.3056 5.9904-31.744 12.0832-43.8784 17.9712h142.4384c49.7664 0 90.1632-42.3424 90.1632-94.6176v-251.5456h-77.2096v194.1504z" fill="#F48806" p-id="1239"></path><path d="M583.2704 488.2944c0-26.7776-20.6848-83.4048-46.1824-83.4048s-46.1824 56.6272-46.1824 83.4048c0 26.7776 20.6848 48.4864 46.1824 48.4864s46.1824-21.7088 46.1824-48.4864z" fill="#FFC31A" p-id="1240"></path><path d="M529.0496 535.9616c2.6112 0.512 5.3248 0.768 8.0896 0.768 25.4976 0 46.1824-21.7088 46.1824-48.4864s-20.6848-83.4048-46.1824-83.4048c-1.6896 0-3.3792 0.256-5.0176 0.768 10.496 27.392 37.4272 108.1856-3.072 130.3552z" fill="#F48806" p-id="1241"></path><path d="M501.9136 687.7696c0-29.4912-22.784-91.8016-50.8416-91.8016s-50.8416 62.3616-50.8416 91.8016 22.784 53.4016 50.8416 53.4016 50.8416-23.9104 50.8416-53.4016z" fill="#FFC31A" p-id="1242"></path><path d="M442.1632 740.2496c2.9184 0.5632 5.8368 0.8704 8.9088 0.8704 28.1088 0 50.8416-23.9104 50.8416-53.4016s-22.784-91.8016-50.8416-91.8016c-1.8944 0-3.7376 0.3072-5.5296 0.8192 11.6224 30.1568 41.216 119.1424-3.3792 143.5136z" fill="#F48806" p-id="1243"></path><path d="M269.6704 809.3696c-11.3152 0-20.48-9.1648-20.48-20.48v-10.752c0-11.3152 9.1648-20.48 20.48-20.48s20.48 9.1648 20.48 20.48v10.752c0 11.3152-9.1648 20.48-20.48 20.48zM269.6704 737.4848c-11.3152 0-20.48-9.1648-20.48-20.48v-171.8272c0-11.3152 9.1648-20.48 20.48-20.48s20.48 9.1648 20.48 20.48v171.8272c0 11.3152-9.1648 20.48-20.48 20.48z" fill="#FFFFFF" p-id="1244"></path><path d="M666.624 415.232h-4.5568V349.44h46.1824c11.3152 0 20.48-9.1648 20.48-20.48s-9.1648-20.48-20.48-20.48h-164.8128c-11.3152 0-20.48 9.1648-20.48 20.48s9.1648 20.48 20.48 20.48h77.7216V435.712c0 11.3152 9.1648 20.48 20.48 20.48h25.0368c38.4 0 69.6832 33.28 69.6832 74.1376v41.7792h-206.2848c-11.3152 0-20.48 9.1648-20.48 20.48s9.1648 20.48 20.48 20.48h206.2848v231.0656c0 40.8576-31.232 74.1376-69.6832 74.1376H255.1296c-38.4 0-69.6832-33.28-69.6832-74.1376v-105.216c0-11.3152-9.1648-20.48-20.48-20.48s-20.48 9.1648-20.48 20.48v105.216c0 63.488 49.6128 115.0976 110.6432 115.0976h411.4432c60.9792 0 110.6432-51.6096 110.6432-115.0976v-313.8048c0-63.4368-49.6128-115.0976-110.592-115.0976zM165.0176 676.8128c11.3152 0 20.48-9.1648 20.48-20.48v-43.264h30.72c11.3152 0 20.48-9.1648 20.48-20.48s-9.1648-20.48-20.48-20.48h-30.72v-41.7792c0-40.9088 31.232-74.1376 69.6832-74.1376h25.0368c11.3152 0 20.48-9.1648 20.48-20.48V349.44h160.768c11.3152 0 20.48-9.1648 20.48-20.48s-9.1648-20.48-20.48-20.48H213.5552c-11.3152 0-20.48 9.1648-20.48 20.48s9.1648 20.48 20.48 20.48h46.1824V415.232h-4.5568c-60.9792 0-110.6432 51.6096-110.6432 115.0976v126.0032c0 11.3152 9.1648 20.48 20.48 20.48zM890.0096 167.5776H502.1184v-37.12c0-11.3152-9.1648-20.48-20.48-20.48s-20.48 9.1648-20.48 20.48v115.2512c0 11.3152 9.1648 20.48 20.48 20.48s20.48-9.1648 20.48-20.48v-37.12h387.9424c11.3152 0 20.48-9.1648 20.48-20.48s-9.216-20.5312-20.5312-20.5312zM267.8784 208.5376h35.328v43.6224c0 11.3152 9.1648 20.48 20.48 20.48s20.48-9.1648 20.48-20.48v-43.6224h40.0896v67.1232c0 11.3152 9.1648 20.48 20.48 20.48s20.48-9.1648 20.48-20.48V100.4544c0-11.3152-9.1648-20.48-20.48-20.48s-20.48 9.1648-20.48 20.48v67.1232h-40.0896v-43.6224c0-11.3152-9.1648-20.48-20.48-20.48s-20.48 9.1648-20.48 20.48v43.6224h-35.328c-11.3152 0-20.48 9.1648-20.48 20.48s9.1648 20.48 20.48 20.48z" fill="#293E40" p-id="1245"></path><path d="M566.8352 467.7632c0-31.0784-22.6816-103.8848-66.6624-103.8848S433.5104 436.736 433.5104 467.7632c0 38.0416 29.9008 68.9664 66.6624 68.9664s66.6624-30.9248 66.6624-68.9664z m-92.3648 0c0-21.8624 16.2816-58.1632 25.7024-62.72 9.4208 4.5568 25.7024 40.8576 25.7024 62.72 0 15.4112-11.52 28.0064-25.7024 28.0064s-25.7024-12.544-25.7024-28.0064zM409.9072 739.1232c39.3216 0 71.3216-33.1264 71.3216-73.8816 0-32.6144-24.9856-112.2816-71.3216-112.2816-14.336 0-26.624 7.6288-36.7616 19.1488h-51.2c-11.3152 0-20.48 9.1648-20.48 20.48s9.1648 20.48 20.48 20.48h27.8528c-7.424 19.5584-11.2128 39.4752-11.2128 52.1728 0 40.7552 32 73.8816 71.3216 73.8816zM409.7536 593.92c10.5472 2.1504 30.5664 45.1584 30.5664 71.3728 0 18.1248-13.6192 32.9216-30.3616 32.9216-16.7424 0-30.3616-14.7456-30.3616-32.9216-0.0512-26.2144 20.0192-69.2224 30.1568-71.3728z" fill="#293E40" p-id="1246"></path></svg>